<svg width="26" height="26" viewBox="0 0 26 26" fill="none" xmlns="http://www.w3.org/2000/svg">
<circle cx="13" cy="13" r="13" fill="#F9ECFF"/>
<path d="M15.7357 13.1701C17.0125 13.1701 18.0475 12.1099 18.0475 10.8021C18.0475 9.49427 17.0125 8.43408 15.7357 8.43408C14.4589 8.43408 13.4239 9.49427 13.4239 10.8021C13.4239 12.1099 14.4589 13.1701 15.7357 13.1701Z" fill="white" stroke="#5F5F5F" stroke-miterlimit="10" stroke-linecap="round"/>
<path d="M19.5001 17.0298V18.5718H11.9674V17.0298C11.9674 15.6287 12.6956 14.4053 13.786 13.7304C14.3563 13.3712 15.0229 13.166 15.7357 13.166C17.8163 13.166 19.5001 14.8946 19.5001 17.0258V17.0298Z" fill="white" stroke="#5F5F5F" stroke-linejoin="round"/>
<path d="M10.2682 11.236C11.545 11.236 12.58 10.1758 12.58 8.86799C12.58 7.56019 11.545 6.5 10.2682 6.5C8.99139 6.5 7.95634 7.56019 7.95634 8.86799C7.95634 10.1758 8.99139 11.236 10.2682 11.236Z" fill="white" stroke="#5F5F5F" stroke-miterlimit="10" stroke-linecap="round"/>
<path d="M13.786 13.7311C12.6956 14.406 11.9674 15.6294 11.9674 17.0305V17.5672H6.49988V15.0927C6.49988 12.9615 8.18367 11.2368 10.2643 11.2368C11.8749 11.2368 13.2543 12.2708 13.786 13.7311Z" fill="white" stroke="#5F5F5F" stroke-linejoin="round"/>
</svg>
