<svg width="26" height="26" viewBox="0 0 26 26" fill="none" xmlns="http://www.w3.org/2000/svg">
<circle cx="13" cy="13" r="13" fill="#FFF7D3"/>
<path d="M13.39 16.6401H17.29" stroke="#5F5F5F" stroke-linecap="round"/>
<path d="M19.5 9.50599V17.8812C19.5 18.7748 18.7945 19.5004 17.9213 19.5004H8.07495C7.20549 19.5004 6.5 18.7748 6.5 17.8812V9.50599C6.5 8.60852 7.20549 7.88672 8.07495 7.88672H9.24568V8.50922C9.24568 8.92932 9.57745 9.26921 9.98549 9.26921C10.3935 9.26921 10.7253 8.92932 10.7253 8.50922V7.88672H15.2709V8.50922C15.2709 8.92932 15.6065 9.26921 16.0107 9.26921C16.4149 9.26921 16.7505 8.92932 16.7505 8.50922V7.88672H17.9136C18.7869 7.88672 19.4924 8.60852 19.4924 9.50599H19.5Z" fill="white" stroke="#5F5F5F" stroke-miterlimit="10"/>
<path d="M8.61258 11.0029H17.3835" stroke="#5F5F5F" stroke-miterlimit="10" stroke-linecap="round"/>
<path d="M10.7254 7.25999V8.505C10.7254 8.92509 10.3898 9.26499 9.98557 9.26499C9.58134 9.26499 9.24576 8.92509 9.24576 8.505V7.25999C9.24576 6.83989 9.57753 6.5 9.98557 6.5C10.3936 6.5 10.7254 6.83989 10.7254 7.25999Z" stroke="#5F5F5F" stroke-miterlimit="10" stroke-linecap="round"/>
<path d="M16.7543 7.25999V8.505C16.7543 8.92509 16.4225 9.26499 16.0145 9.26499C15.6064 9.26499 15.2747 8.92509 15.2747 8.505V7.25999C15.2747 6.83989 15.6102 6.5 16.0145 6.5C16.4187 6.5 16.7543 6.83989 16.7543 7.25999Z" stroke="#5F5F5F" stroke-miterlimit="10" stroke-linecap="round"/>
<path d="M10.9274 13.6914H9.45925C9.06541 13.6914 8.74614 14.0111 8.74614 14.4056V15.9523C8.74614 16.3467 9.06541 16.6664 9.45925 16.6664H10.9274C11.3213 16.6664 11.6405 16.3467 11.6405 15.9523V14.4056C11.6405 14.0111 11.3213 13.6914 10.9274 13.6914Z" stroke="#5F5F5F" stroke-miterlimit="10"/>
<path d="M13.39 13.6504H17.29" stroke="#5F5F5F" stroke-linecap="round"/>
<path d="M13.39 15.145H17.29" stroke="#5F5F5F" stroke-linecap="round"/>
</svg>
